<?xml version="1.0" encoding="utf-8"?>
<!-- Generator: Adobe Illustrator 24.0.0, SVG Export Plug-In . SVG Version: 6.00 Build 0)  -->
<svg version="1.1" id="Layer_1" xmlns="http://www.w3.org/2000/svg" xmlns:xlink="http://www.w3.org/1999/xlink" x="0px" y="0px"
	 viewBox="0 0 220 154.3" style="enable-background:new 0 0 220 154.3;" xml:space="preserve">
<style type="text/css">
	.st0{fill:#5B8199;}
	.st1{fill:#5A9099;}
	.st2{fill:#1C2223;}
</style>
<path class="st0" d="M87.9,13.6c0,3.5,0,12.5,0,17.3c0,0.7,0.4,1.3,0.9,1.7c9,5.6,17.9,11.1,26.8,16.7l0.3,0.2
	c0.2,0.2,0.3,0.5,0.1,0.7c0,0.1-0.1,0.1-0.1,0.1c-1.1,0.8-3.5,2.3-4.7,3.2c-0.6,0.6-1.5,0.7-2.1,0.1c-9-5.6-18-11.2-27-16.7
	c-1.2-0.6-1.9-1.8-1.7-3.1c0.1-9.5,0.1-28,0.1-33.1c0-0.4,0.3-0.8,0.7-0.8c0.2,0,0.3,0,0.5,0.1c4.3,2.6,19.4,12,27.2,16.9
	c0.5,0.4,1.2,0.4,1.7,0c7.9-4.9,23.3-14.4,27.4-16.9c0.4-0.2,0.8-0.1,1,0.2c0.1,0.1,0.1,0.2,0.1,0.4c0.3,6.2,0.4,33.8,0.2,41.5
	c0,0.6-0.5,1.1-1.2,1.1c-0.2,0-0.4-0.1-0.6-0.2c-1-0.6-2.2-1.4-3.4-2.2c-1.4-1-2.2-1.1-2.2-2.4c0-8.3,0-16.5,0-24.8v-0.2
	c0-0.4-0.3-0.8-0.8-0.8c-0.1,0-0.3,0-0.4,0.1l-12.5,7.8c-0.6,0.3-0.7,1.1-0.4,1.6c0.1,0.2,0.2,0.3,0.4,0.4l1,0.6
	c2.5,1.6,5,3.1,7.5,4.7c0.5,0.3,0.8,0.8,0.8,1.4c0,1.5-0.1,4.4-0.1,6.1c0,0.4-0.4,0.8-0.8,0.8c-0.1,0-0.3,0-0.4-0.1L89.1,13
	c-0.4-0.2-0.8-0.1-1.1,0.3C88,13.4,87.9,13.5,87.9,13.6z"/>
<path class="st1" d="M125,50.8c0.4-0.2,0.5-0.7,0.3-1.1c-0.1-0.1-0.2-0.2-0.3-0.3l0,0c-10.3-6.4-20.7-12.9-31-19.3
	c-0.9-0.5-1.3-1.5-1.3-2.5c0.1-1.8,0-3.6,0-5.4l0,0c0-0.5,0.4-0.8,0.9-0.7c0.1,0,0.3,0.1,0.4,0.1l44.8,27.9c0.3,0.2,0.4,0.6,0.2,1
	c-0.1,0.1-0.1,0.2-0.2,0.2c-1.6,1-5,3.1-6.9,4.3c-6.9,4.3-13.8,8.7-20.8,13c-0.5,0.4-1.2,0.4-1.7,0c-9.3-5.8-18.5-11.6-27.8-17.3
	c-0.7-0.5-0.8-1-0.8-2V43c0-0.4,0.3-0.7,0.7-0.8c0.2,0,0.3,0,0.4,0.1l0.4,0.2c9,5.6,17.9,11.2,26.9,16.8c1.1,0.7,1.6,0.1,3.3-1
	c4.1-2.6,7.1-4.5,11.9-7.3L125,50.8z"/>
<path class="st2" d="M18.7,84.7h5.7c0.1,0,0.2,0.1,0.3,0.1c0.1,0.1,0.1,0.2,0.1,0.3v27.3c0,0.1,0,0.3-0.1,0.3
	c-0.1,0.1-0.2,0.1-0.3,0.1h-5.7c-0.1,0-0.3,0-0.3-0.1c-0.1-0.1-0.1-0.2-0.1-0.3V96.3c0-0.1,0-0.2-0.1-0.2s-0.1,0-0.2,0.1l-3.5,5.6
	c-0.1,0.2-0.3,0.3-0.6,0.3H11c-0.2,0-0.5-0.1-0.6-0.3l-3.5-5.6c0-0.1-0.1-0.1-0.2-0.1c-0.1,0-0.1,0-0.1,0.2v16.3
	c0,0.1-0.1,0.2-0.1,0.3c-0.1,0.1-0.2,0.1-0.3,0.1H0.5c-0.3,0-0.5-0.2-0.5-0.5V85.2c0-0.3,0.2-0.5,0.5-0.5c0,0,0,0,0,0h5.7
	c0.2,0,0.4,0.1,0.6,0.3l5.6,8.8c0.1,0.2,0.2,0.2,0.2,0l5.5-8.8C18.2,84.8,18.4,84.7,18.7,84.7z M31.4,112.8
	c-0.1-0.1-0.1-0.2-0.1-0.3V85.2c0-0.1,0-0.3,0.1-0.3c0.1-0.1,0.2-0.1,0.3-0.1h5.7c0.1,0,0.2,0.1,0.3,0.1c0.1,0.1,0.1,0.2,0.1,0.3
	v27.3c0,0.1,0,0.3-0.1,0.3c-0.1,0.1-0.2,0.1-0.3,0.1h-5.7C31.6,113,31.5,112.9,31.4,112.8z M44.5,112.8c-0.1-0.1-0.1-0.2-0.1-0.3
	V85.2c0-0.3,0.2-0.5,0.5-0.5h0h10.3c1.9,0,3.8,0.3,5.6,1.1c1.5,0.7,2.8,1.7,3.8,3.1c0.9,1.4,1.4,3,1.3,4.6v10.6
	c0,1.6-0.4,3.3-1.3,4.6c-0.9,1.4-2.2,2.5-3.8,3.1c-1.8,0.8-3.7,1.1-5.6,1.1H44.8C44.7,113,44.6,112.9,44.5,112.8z M51.2,107.2h4.2
	c1,0,2-0.4,2.6-1.2c0.7-0.9,1-2,1-3.1v-8.3c0.1-1.1-0.3-2.2-1-3.1c-0.7-0.8-1.7-1.2-2.7-1.2h-4.1c-0.1,0-0.2,0.1-0.2,0.2V107
	C51,107.1,51.1,107.2,51.2,107.2C51.2,107.3,51.2,107.3,51.2,107.2z M70.9,104c-0.1-0.1-0.2-0.2-0.2-0.3v-4.8c0-0.1,0.1-0.3,0.2-0.3
	c0.1-0.1,0.2-0.1,0.3-0.1h13.7c0.1,0,0.3,0,0.3,0.1c0.1,0.1,0.1,0.2,0.1,0.3v4.8c0,0.1,0,0.3-0.1,0.3c-0.1,0.1-0.2,0.1-0.3,0.1H71.2
	C71.1,104.1,71,104.1,70.9,104z M95.2,112.2c-1.5-0.6-2.9-1.7-3.8-3.1c-0.9-1.4-1.4-3-1.3-4.6v-0.8c0-0.3,0.2-0.5,0.5-0.5h0h5.6
	c0.1,0,0.3,0,0.3,0.1c0.1,0.1,0.2,0.2,0.2,0.3v0.5c0,1,0.6,1.8,1.4,2.3c1.1,0.7,2.3,1.1,3.6,1c0.9,0.1,1.9-0.2,2.6-0.8
	c0.5-0.5,0.8-1.1,0.8-1.8c0-0.5-0.2-1-0.5-1.3c-0.4-0.4-0.8-0.7-1.3-0.8c-0.6-0.2-1.4-0.5-2.6-0.9c-0.2-0.1-0.3-0.1-0.5-0.2
	c-0.1,0-0.3-0.1-0.4-0.2c-1.6-0.5-3.1-1.1-4.6-1.8c-1.3-0.7-2.4-1.6-3.3-2.7c-0.9-1.2-1.4-2.8-1.4-4.3c0-1.6,0.4-3.1,1.3-4.4
	c0.9-1.3,2.2-2.3,3.7-2.9c3.5-1.4,7.4-1.3,10.9,0.1c1.6,0.7,2.9,1.8,3.9,3.2c0.9,1.4,1.4,3,1.4,4.7V94c0,0.3-0.2,0.5-0.5,0.5h0h-5.6
	c-0.3,0-0.5-0.2-0.5-0.5v0v-0.3c0-1-0.5-1.9-1.2-2.5c-0.9-0.8-2.1-1.1-3.3-1.1c-0.9,0-1.7,0.2-2.5,0.7c-0.6,0.4-0.9,1.1-0.9,1.8
	c0,0.5,0.2,1.1,0.6,1.5c0.5,0.5,1.1,0.8,1.8,1.1c0.8,0.3,2,0.8,3.7,1.3c1.9,0.6,3.3,1.2,4.4,1.7c1.2,0.6,2.2,1.4,3,2.4
	c1,1.2,1.5,2.7,1.4,4.3c0,1.6-0.4,3.2-1.3,4.5c-0.9,1.3-2.2,2.3-3.7,2.9c-1.8,0.7-3.7,1.1-5.6,1C99.1,113.3,97.1,113,95.2,112.2z
	 M122.2,112.1c-1.6-0.8-2.9-2.1-3.8-3.7c-0.9-1.7-1.4-3.6-1.4-5.5v-8.1c0-1.9,0.4-3.8,1.4-5.4c0.9-1.6,2.2-2.8,3.8-3.7
	c3.6-1.7,7.9-1.7,11.5,0c1.6,0.8,3,2.1,3.9,3.7c1,1.7,1.4,3.5,1.4,5.4v8.1c0,1.9-0.4,3.8-1.4,5.5c-0.9,1.6-2.3,2.9-3.9,3.7
	C130.1,113.9,125.9,113.9,122.2,112.1L122.2,112.1z M131.1,106.4c0.8-0.9,1.2-2.1,1.2-3.3v-8.4c0.1-1.2-0.4-2.4-1.2-3.3
	c-0.8-0.9-2-1.3-3.1-1.3c-1.2,0-2.3,0.4-3.1,1.3c-0.8,0.9-1.3,2.1-1.2,3.3v8.3c-0.1,1.2,0.4,2.4,1.2,3.3c0.8,0.8,1.9,1.3,3.1,1.3
	C129.1,107.7,130.2,107.3,131.1,106.4z M149.9,112.1c-1.6-0.8-2.9-2-3.8-3.5c-0.9-1.6-1.4-3.4-1.4-5.2V85.2c0-0.1,0-0.3,0.1-0.3
	c0.1-0.1,0.2-0.1,0.3-0.1h5.7c0.1,0,0.2,0.1,0.3,0.1c0.1,0.1,0.1,0.2,0.1,0.3v18.2c0,1.1,0.4,2.2,1.1,3c0.8,0.8,1.9,1.2,3,1.2
	c1.1,0,2.2-0.4,2.9-1.2c0.8-0.8,1.2-1.9,1.1-3V85.2c0-0.1,0.1-0.2,0.1-0.3c0.1-0.1,0.2-0.1,0.4-0.1h5.7c0.1,0,0.2,0.1,0.3,0.1
	c0.1,0.1,0.1,0.2,0.1,0.3v18.2c0,1.8-0.4,3.6-1.3,5.2c-0.9,1.5-2.2,2.7-3.8,3.5C157.6,113.7,153.5,113.7,149.9,112.1L149.9,112.1z
	 M193.2,84.9c0.1,0.1,0.1,0.2,0.1,0.3V90c0,0.1,0,0.3-0.1,0.3c-0.1,0.1-0.2,0.1-0.3,0.1h-7.1c-0.1,0-0.2,0.1-0.2,0.2c0,0,0,0,0,0
	v21.8c0,0.1-0.1,0.3-0.1,0.3c-0.1,0.1-0.2,0.1-0.3,0.1h-5.7c-0.1,0-0.2-0.1-0.3-0.1c-0.1-0.1-0.1-0.2-0.1-0.3V90.7
	c0-0.1-0.1-0.2-0.2-0.2c0,0,0,0,0,0h-6.8c-0.1,0-0.3,0-0.3-0.1c-0.1-0.1-0.2-0.2-0.1-0.3v-4.8c0-0.1,0.1-0.3,0.1-0.3
	c0.1-0.1,0.2-0.1,0.3-0.1h21C193,84.7,193.1,84.8,193.2,84.9z M213.4,84.9c0.1-0.1,0.2-0.1,0.4-0.1h5.7c0.1,0,0.2,0.1,0.3,0.1
	c0.1,0.1,0.1,0.2,0.1,0.3v27.3c0,0.1-0.1,0.2-0.1,0.3c-0.1,0.1-0.2,0.1-0.3,0.1h-5.7c-0.1,0-0.3,0-0.4-0.1c-0.1-0.1-0.1-0.2-0.1-0.3
	v-10.7c0-0.1-0.1-0.2-0.2-0.2c0,0,0,0,0,0h-7.5c-0.1,0-0.2,0-0.2,0.1c0,0,0,0,0,0.1v10.7c0,0.1,0,0.3-0.1,0.3
	c-0.1,0.1-0.2,0.1-0.3,0.1h-5.7c-0.1,0-0.2-0.1-0.3-0.1c-0.1-0.1-0.1-0.2-0.1-0.3V85.2c0-0.1,0-0.3,0.1-0.3c0.1-0.1,0.2-0.1,0.3-0.1
	h5.7c0.1,0,0.2,0.1,0.3,0.1c0.1,0.1,0.1,0.2,0.1,0.3v10.4c0,0.1,0.1,0.2,0.2,0.2h7.5c0.1,0,0.2-0.1,0.2-0.2c0,0,0,0,0,0V85.2
	C213.3,85.1,213.4,85,213.4,84.9z"/>
<path class="st2" d="M215,127.6l-4.9,10.4l-0.6,1.3l0.6,1.4l4.9,10.4H5l4.9-10.4l0.6-1.4L9.9,138L5,127.6H215 M220,124.4H0l7,14.9
	l-7,14.9h220l-7-14.9L220,124.4L220,124.4z"/>
<path class="st2" d="M79.7,134.9c0,0-0.1,0.1-0.2,0.1H73c-0.1,0-0.1,0-0.1,0.1c0,0,0,0,0,0v2.6c0,0.1,0,0.1,0.1,0.1h4.2
	c0.1,0,0.1,0,0.2,0.1c0,0,0.1,0.1,0.1,0.2v2.4c0,0.1-0.1,0.2-0.2,0.2c0,0,0,0,0,0H73c-0.1,0-0.1,0-0.1,0.1c0,0,0,0,0,0v2.8
	c0,0.1,0,0.1,0.1,0.1h6.6c0.1,0,0.1,0,0.2,0.1c0,0,0.1,0.1,0.1,0.2v2.5c0,0.1-0.1,0.2-0.2,0.2c0,0,0,0,0,0h-9.9
	c-0.1,0-0.1,0-0.2-0.1c-0.1,0-0.1-0.1-0.1-0.2v-14.1c0-0.1,0-0.1,0.1-0.2c0,0,0.1-0.1,0.2-0.1h9.9c0.1,0,0.2,0.1,0.2,0.2
	c0,0,0,0,0,0v2.5C79.8,134.8,79.8,134.9,79.7,134.9z M85.9,146.3c-0.8-0.3-1.5-0.9-2-1.6c-0.5-0.7-0.7-1.5-0.7-2.4v-0.4
	c0-0.1,0-0.1,0.1-0.2c0-0.1,0.1-0.1,0.2-0.1h2.9c0.1,0,0.1,0,0.2,0.1c0.1,0,0.1,0.1,0.1,0.2v0.2c0,0.5,0.3,0.9,0.7,1.2
	c0.5,0.4,1.2,0.5,1.9,0.5c0.5,0,1-0.1,1.4-0.4c0.3-0.2,0.4-0.6,0.4-0.9c0-0.3-0.1-0.5-0.3-0.7c-0.2-0.2-0.4-0.3-0.7-0.4
	c-0.3-0.1-0.7-0.3-1.4-0.5c-0.1,0-0.2-0.1-0.2-0.1l-0.2-0.1c-0.8-0.3-1.6-0.6-2.4-0.9c-0.7-0.3-1.3-0.8-1.7-1.4
	c-0.5-0.6-0.7-1.4-0.7-2.2c0-0.8,0.2-1.6,0.7-2.3c0.5-0.7,1.1-1.2,1.9-1.5c0.9-0.4,1.8-0.5,2.7-0.5c1,0,2,0.2,2.9,0.6
	c0.8,0.4,1.5,0.9,2,1.7c0.5,0.7,0.7,1.6,0.7,2.4v0.3c0,0.1-0.1,0.2-0.2,0.2c0,0,0,0,0,0h-2.9c-0.1,0-0.1-0.1-0.1-0.1
	c-0.1,0-0.1-0.1-0.1-0.2v-0.1c0-0.5-0.2-1-0.7-1.3c-0.5-0.4-1.1-0.6-1.7-0.6c-0.5,0-0.9,0.1-1.3,0.3c-0.3,0.2-0.5,0.6-0.5,0.9
	c0,0.3,0.1,0.6,0.3,0.8c0.3,0.2,0.6,0.4,0.9,0.6c0.4,0.2,1,0.4,1.9,0.7s1.7,0.6,2.3,0.9c0.6,0.3,1.1,0.7,1.5,1.2
	c0.5,0.6,0.8,1.4,0.7,2.2c0,0.8-0.2,1.7-0.7,2.3c-0.5,0.7-1.2,1.2-1.9,1.5c-0.9,0.4-1.9,0.6-2.9,0.5
	C87.9,146.9,86.8,146.7,85.9,146.3z M108.8,132.1c0,0,0.1,0.1,0.1,0.2v2.5c0,0.1,0,0.1-0.1,0.2c0,0.1-0.1,0.1-0.2,0.1H105
	c-0.1,0-0.1,0-0.1,0.1v11.3c0,0.1-0.1,0.2-0.2,0.2c0,0,0,0,0,0h-3c-0.1,0-0.2-0.1-0.2-0.2c0,0,0,0,0,0v-11.3c0-0.1,0-0.1-0.1-0.1
	h-3.5c-0.1,0-0.1,0-0.2-0.1c0-0.1-0.1-0.1-0.1-0.2v-2.5c0-0.1,0-0.1,0.1-0.2c0,0,0.1-0.1,0.2-0.1h10.9
	C108.7,132,108.8,132.1,108.8,132.1z M120.4,146.5l-0.5-1.9c0,0-0.1-0.1-0.1-0.1H115c0,0-0.1,0-0.1,0.1l-0.5,1.9
	c0,0.1-0.2,0.2-0.3,0.2h-3.2c-0.1,0-0.1,0-0.2-0.1c0-0.1,0-0.2,0-0.2l4.5-14.1c0-0.1,0.1-0.2,0.3-0.2h4c0.1,0,0.2,0.1,0.3,0.2
	l4.5,14.1c0,0,0,0.1,0,0.1c0,0.1-0.1,0.2-0.2,0.2h-3.2C120.6,146.7,120.5,146.7,120.4,146.5C120.4,146.5,120.4,146.5,120.4,146.5z
	 M115.8,141.9h3.1c0.1,0,0.1,0,0.1-0.1l-1.6-5.4c0,0,0-0.1-0.1-0.1c0,0-0.1,0-0.1,0.1l-1.6,5.4C115.7,141.8,115.7,141.9,115.8,141.9
	z M136.5,132.1c0,0,0.1,0.1,0.1,0.2v2.5c0,0.1,0,0.1-0.1,0.2c0,0.1-0.1,0.1-0.2,0.1h-3.7c-0.1,0-0.1,0-0.1,0.1v11.3
	c0,0.1,0,0.1-0.1,0.2c0,0-0.1,0.1-0.2,0.1h-3c-0.1,0-0.2-0.1-0.2-0.2c0,0,0,0,0,0v-11.3c0-0.1,0-0.1-0.1-0.1h-3.5
	c-0.1,0-0.1,0-0.2-0.1c0,0-0.1-0.1-0.1-0.2v-2.5c0-0.1,0.1-0.2,0.2-0.2c0,0,0,0,0,0h10.9C136.4,132,136.5,132.1,136.5,132.1z
	 M150.5,134.9c0,0-0.1,0.1-0.2,0.1h-6.6c-0.1,0-0.1,0-0.1,0.1v2.6c0,0.1,0,0.1,0.1,0.1h4.2c0.1,0,0.1,0,0.2,0.1c0,0,0.1,0.1,0.1,0.2
	v2.4c0,0.1-0.1,0.2-0.2,0.2c0,0,0,0,0,0h-4.2c-0.1,0-0.1,0-0.1,0.1v2.8c0,0.1,0,0.1,0.1,0.1h6.6c0.1,0,0.1,0,0.2,0.1
	c0.1,0,0.1,0.1,0.1,0.2v2.5c0,0.1,0,0.1-0.1,0.2c0,0-0.1,0.1-0.2,0.1h-9.9c-0.1,0-0.2-0.1-0.2-0.2c0,0,0,0,0,0v-14.1
	c0-0.1,0.1-0.2,0.2-0.2c0,0,0,0,0,0h9.9c0.1,0,0.1,0,0.2,0.1c0.1,0,0.1,0.1,0.1,0.2v2.5C150.6,134.8,150.6,134.9,150.5,134.9z"/>
</svg>
