<svg xmlns="http://www.w3.org/2000/svg" viewBox="0 0 305 80.68"><defs><style>.cls-1{fill:#1c2223;}.cls-2{fill:#5b8199;}.cls-3{fill:#5a9099;}</style></defs><title>mse-logo-horizAsset 3</title><g id="Layer_2" data-name="Layer 2"><g id="Layer_1-2" data-name="Layer 1"><path class="cls-1" d="M300.26,48.16,295.67,58l-.6,1.28.6,1.27,4.59,9.85H101.38l4.6-9.85.59-1.27L106,58l-4.6-9.85H300.26m4.74-3H96.64l6.6,14.14-6.6,14.14H305l-6.6-14.14L305,45.15Z"/><path class="cls-1" d="M172.15,55.1a.21.21,0,0,1-.17.07h-6.21c-.07,0-.1,0-.1.1V57.7c0,.07,0,.1.1.1h4a.28.28,0,0,1,.17.07A.26.26,0,0,1,170,58v2.32a.24.24,0,0,1-.24.23h-4a.09.09,0,0,0-.1.1v2.62c0,.06,0,.09.1.09H172a.24.24,0,0,1,.17.07.23.23,0,0,1,.07.17V66a.22.22,0,0,1-.07.17.24.24,0,0,1-.17.07h-9.36a.24.24,0,0,1-.24-.24V52.59a.24.24,0,0,1,.07-.16.22.22,0,0,1,.17-.07H172a.21.21,0,0,1,.17.07.2.2,0,0,1,.07.16v2.34A.22.22,0,0,1,172.15,55.1ZM178,65.85a4.28,4.28,0,0,1-1.88-1.5,4,4,0,0,1-.66-2.27V61.7a.23.23,0,0,1,.07-.17.26.26,0,0,1,.17-.07h2.75a.26.26,0,0,1,.17.07.28.28,0,0,1,.07.17v.24a1.42,1.42,0,0,0,.65,1.14,2.91,2.91,0,0,0,1.76.48,1.89,1.89,0,0,0,1.29-.37,1.14,1.14,0,0,0,.42-.87.91.91,0,0,0-.25-.65,2.07,2.07,0,0,0-.67-.41c-.27-.11-.7-.27-1.28-.47a1.17,1.17,0,0,0-.24-.09l-.22-.07a14.09,14.09,0,0,1-2.24-.9,4.85,4.85,0,0,1-1.62-1.34,3.37,3.37,0,0,1-.67-2.13,3.64,3.64,0,0,1,.64-2.15A4.18,4.18,0,0,1,178,52.69a7.12,7.12,0,0,1,5.34.06,4.5,4.5,0,0,1,1.91,1.57,4,4,0,0,1,.69,2.31v.28a.22.22,0,0,1-.07.17.2.2,0,0,1-.16.07H183a.2.2,0,0,1-.16-.07.22.22,0,0,1-.07-.17v-.14a1.61,1.61,0,0,0-.62-1.23,2.45,2.45,0,0,0-1.64-.53,2,2,0,0,0-1.21.32,1,1,0,0,0-.43.89,1,1,0,0,0,.27.72,2.77,2.77,0,0,0,.86.54c.39.16,1,.37,1.8.64s1.64.59,2.15.83a4.3,4.3,0,0,1,1.46,1.16,3.16,3.16,0,0,1,.68,2.11,3.82,3.82,0,0,1-.65,2.22,4.26,4.26,0,0,1-1.83,1.43,6.89,6.89,0,0,1-2.75.5A7.23,7.23,0,0,1,178,65.85Zm21.78-13.42a.2.2,0,0,1,.07.16V55a.22.22,0,0,1-.07.17.21.21,0,0,1-.17.07H196.1c-.07,0-.1,0-.1.1V66a.22.22,0,0,1-.07.17.24.24,0,0,1-.17.07H193a.28.28,0,0,1-.17-.07.26.26,0,0,1-.07-.17V55.29c0-.07,0-.1-.09-.1h-3.35A.24.24,0,0,1,189,55V52.59a.2.2,0,0,1,.07-.16.22.22,0,0,1,.17-.07h10.29A.21.21,0,0,1,199.73,52.43ZM210.65,66l-.51-1.76c0-.06-.06-.08-.1-.08h-4.52s-.07,0-.1.08L204.91,66a.26.26,0,0,1-.28.2h-3a.22.22,0,0,1-.17-.07.21.21,0,0,1,0-.21l4.23-13.38a.25.25,0,0,1,.26-.2h3.74a.25.25,0,0,1,.26.2l4.26,13.38a.3.3,0,0,1,0,.1c0,.12-.08.18-.22.18h-3A.26.26,0,0,1,210.65,66Zm-4.35-4.38h2.95c.07,0,.1,0,.07-.12l-1.5-5.08c0-.06,0-.08-.06-.07s0,0-.06.07l-1.48,5.08C206.2,61.6,206.23,61.64,206.3,61.64ZM226,52.43a.24.24,0,0,1,.07.16V55a.26.26,0,0,1-.07.17.23.23,0,0,1-.17.07h-3.47a.09.09,0,0,0-.1.1V66a.22.22,0,0,1-.07.17.24.24,0,0,1-.16.07h-2.82a.24.24,0,0,1-.16-.07.22.22,0,0,1-.07-.17V55.29a.09.09,0,0,0-.1-.1h-3.35a.23.23,0,0,1-.17-.07.26.26,0,0,1-.07-.17V52.59a.24.24,0,0,1,.24-.23h10.3A.23.23,0,0,1,226,52.43Zm13.24,2.67a.21.21,0,0,1-.17.07h-6.21c-.07,0-.1,0-.1.1V57.7c0,.07,0,.1.1.1h4a.24.24,0,0,1,.16.07A.22.22,0,0,1,237,58v2.32a.24.24,0,0,1-.23.23h-4a.09.09,0,0,0-.1.1v2.62c0,.06,0,.09.1.09H239a.24.24,0,0,1,.17.07.23.23,0,0,1,.07.17V66a.22.22,0,0,1-.07.17.24.24,0,0,1-.17.07h-9.36a.26.26,0,0,1-.17-.07.22.22,0,0,1-.07-.17V52.59a.2.2,0,0,1,.07-.16.22.22,0,0,1,.17-.07H239a.21.21,0,0,1,.17.07.2.2,0,0,1,.07.16v2.34A.22.22,0,0,1,239.19,55.1Z"/><path class="cls-1" d="M114.33,7.55h5.39a.45.45,0,0,1,.33.14.44.44,0,0,1,.13.32V33.84a.44.44,0,0,1-.46.46H114.3a.44.44,0,0,1-.46-.46V18.48c0-.1,0-.15-.08-.15s-.1,0-.15.11l-3.29,5.28a.54.54,0,0,1-.53.3h-2.72a.54.54,0,0,1-.53-.3l-3.33-5.31q-.08-.12-.15-.12s-.07.05-.07.15v15.4a.45.45,0,0,1-.14.33.44.44,0,0,1-.32.13H97.1a.42.42,0,0,1-.32-.13.45.45,0,0,1-.14-.33V8a.45.45,0,0,1,.14-.32.43.43,0,0,1,.32-.14h5.39a.59.59,0,0,1,.53.31l5.31,8.33c.08.15.16.15.23,0l5.24-8.33A.55.55,0,0,1,114.33,7.55Zm12,26.62a.44.44,0,0,1-.13-.33V8a.44.44,0,0,1,.13-.32.45.45,0,0,1,.33-.14h5.42a.45.45,0,0,1,.33.14.48.48,0,0,1,.13.32V33.84a.49.49,0,0,1-.13.33.44.44,0,0,1-.33.13h-5.42A.44.44,0,0,1,126.35,34.17Zm12.42,0a.44.44,0,0,1-.13-.33V8a.44.44,0,0,1,.13-.32.45.45,0,0,1,.32-.14h9.75a12.71,12.71,0,0,1,5.27,1,8,8,0,0,1,3.55,2.94,7.79,7.79,0,0,1,1.26,4.39v10a7.82,7.82,0,0,1-1.26,4.4,8.15,8.15,0,0,1-3.55,2.94,12.71,12.71,0,0,1-5.27,1h-9.75A.44.44,0,0,1,138.77,34.17Zm6.4-5.29h3.93a3.18,3.18,0,0,0,2.49-1.09,4.44,4.44,0,0,0,1-2.93V17a4.22,4.22,0,0,0-1-2.92A3.24,3.24,0,0,0,149.07,13h-3.9a.17.17,0,0,0-.19.19V28.68C145,28.81,145,28.88,145.17,28.88Zm18.59-3.08a.45.45,0,0,1-.14-.33V21a.45.45,0,0,1,.14-.33.42.42,0,0,1,.32-.13h13a.44.44,0,0,1,.46.46v4.5a.44.44,0,0,1-.46.46h-13A.42.42,0,0,1,163.76,25.8Zm23.08,7.79a8.07,8.07,0,0,1-3.63-2.9,7.57,7.57,0,0,1-1.28-4.38v-.72a.44.44,0,0,1,.13-.33.49.49,0,0,1,.33-.13h5.31a.48.48,0,0,1,.32.13.44.44,0,0,1,.13.33v.46a2.7,2.7,0,0,0,1.27,2.19,5.53,5.53,0,0,0,3.4.94,3.62,3.62,0,0,0,2.48-.72,2.24,2.24,0,0,0,.8-1.69,1.67,1.67,0,0,0-.48-1.24,3.74,3.74,0,0,0-1.27-.8q-.81-.33-2.49-.9a2.54,2.54,0,0,0-.46-.17l-.42-.13a31.22,31.22,0,0,1-4.32-1.74,9.42,9.42,0,0,1-3.13-2.6,6.51,6.51,0,0,1-1.3-4.11,7.08,7.08,0,0,1,1.24-4.14,7.93,7.93,0,0,1,3.46-2.74,13.65,13.65,0,0,1,10.3.12,8.76,8.76,0,0,1,3.69,3,7.72,7.72,0,0,1,1.33,4.47v.53a.44.44,0,0,1-.13.33.44.44,0,0,1-.32.13h-5.32a.44.44,0,0,1-.32-.13.44.44,0,0,1-.13-.33v-.27a3.05,3.05,0,0,0-1.19-2.36,4.66,4.66,0,0,0-3.17-1,4,4,0,0,0-2.33.61A2,2,0,0,0,188.5,15,1.94,1.94,0,0,0,189,16.4a5.06,5.06,0,0,0,1.67,1c.75.32,1.9.73,3.45,1.24a44.16,44.16,0,0,1,4.17,1.61,8.4,8.4,0,0,1,2.81,2.23,6.06,6.06,0,0,1,1.32,4.07,7.17,7.17,0,0,1-1.27,4.28,8,8,0,0,1-3.53,2.77,13.35,13.35,0,0,1-5.29,1A13.73,13.73,0,0,1,186.84,33.59Zm25.52-.11a8.92,8.92,0,0,1-3.65-3.5,10.33,10.33,0,0,1-1.3-5.23V17.11a10.09,10.09,0,0,1,1.3-5.14,9,9,0,0,1,3.65-3.48,12.62,12.62,0,0,1,10.91,0A9,9,0,0,1,226.94,12a10.09,10.09,0,0,1,1.3,5.14v7.64a10.33,10.33,0,0,1-1.3,5.23,8.91,8.91,0,0,1-3.67,3.5,12.62,12.62,0,0,1-10.91,0Zm8.41-5.37a4.42,4.42,0,0,0,1.12-3.17V17a4.42,4.42,0,0,0-1.12-3.15,4.19,4.19,0,0,0-5.89,0A4.42,4.42,0,0,0,213.76,17v7.91a4.42,4.42,0,0,0,1.12,3.17,4.24,4.24,0,0,0,5.89,0Zm17.8,5.33a8.62,8.62,0,0,1-3.59-3.3,9.46,9.46,0,0,1-1.28-4.93V8a.48.48,0,0,1,.13-.32.45.45,0,0,1,.33-.14h5.43a.45.45,0,0,1,.32.14A.44.44,0,0,1,240,8v17.2a4,4,0,0,0,1.05,2.88,3.71,3.71,0,0,0,2.81,1.09,3.65,3.65,0,0,0,2.77-1.09,4,4,0,0,0,1.05-2.88V8a.45.45,0,0,1,.14-.32.43.43,0,0,1,.32-.14h5.43a.43.43,0,0,1,.32.14.45.45,0,0,1,.14.32v17.2a9.54,9.54,0,0,1-1.26,4.93,8.54,8.54,0,0,1-3.58,3.3,12.73,12.73,0,0,1-10.66,0Zm41-25.75a.44.44,0,0,1,.13.32v4.55a.41.41,0,0,1-.13.32.45.45,0,0,1-.33.14H272.6a.17.17,0,0,0-.19.19V33.84a.45.45,0,0,1-.14.33.42.42,0,0,1-.32.13h-5.43a.42.42,0,0,1-.32-.13.45.45,0,0,1-.14-.33V13.21a.17.17,0,0,0-.19-.19h-6.46a.45.45,0,0,1-.32-.14.41.41,0,0,1-.13-.32V8a.44.44,0,0,1,.13-.32.45.45,0,0,1,.32-.14h19.87A.45.45,0,0,1,279.61,7.69Zm19.18,0a.45.45,0,0,1,.32-.14h5.43a.45.45,0,0,1,.33.14A.48.48,0,0,1,305,8V33.84a.49.49,0,0,1-.13.33.44.44,0,0,1-.33.13h-5.43a.44.44,0,0,1-.32-.13.44.44,0,0,1-.13-.33V23.68a.17.17,0,0,0-.19-.19h-7.15a.17.17,0,0,0-.19.19V33.84a.49.49,0,0,1-.13.33.44.44,0,0,1-.33.13h-5.43a.44.44,0,0,1-.32-.13.44.44,0,0,1-.13-.33V8a.44.44,0,0,1,.13-.32.45.45,0,0,1,.32-.14h5.43a.45.45,0,0,1,.33.14.48.48,0,0,1,.13.32v9.86a.17.17,0,0,0,.19.19h7.15a.17.17,0,0,0,.19-.19V8A.44.44,0,0,1,298.79,7.69Z"/><path class="cls-2" d="M8.81,16.09c0,4.11,0,14.81,0,20.39a2.34,2.34,0,0,0,1.1,2q15.88,9.86,31.73,19.77l.34.22a.59.59,0,0,1,0,1c-1.35.92-4.09,2.75-5.53,3.82a1.85,1.85,0,0,1-2.54.14C23.29,56.79,12.7,50.16,2,43.63A3.69,3.69,0,0,1,0,40C.07,28.73.09,7,.12.89A.89.89,0,0,1,1.49.14c5.05,3.11,22.89,14.2,32.14,20a1.65,1.65,0,0,0,2,0C45.05,14.35,63.15,3.2,68,.2A.9.9,0,0,1,69.4.93c.32,7.37.5,39.93.27,49A1.36,1.36,0,0,1,67.59,51c-1.15-.71-2.63-1.66-4.07-2.66-1.71-1.17-2.58-1.33-2.58-2.81,0-9.77,0-19.55,0-29.33v-.18a.9.9,0,0,0-1.38-.76L44.78,24.5a1.39,1.39,0,0,0,0,2.35l1.16.73c3,1.85,5.92,3.71,8.9,5.53a1.67,1.67,0,0,1,.9,1.68c0,1.77-.07,5.15-.09,7.19a.92.92,0,0,1-1.4.76l-44-27.41A.9.9,0,0,0,8.81,16.09Z"/><path class="cls-3" d="M52.63,60a.91.91,0,0,0,0-1.57h0Q34.31,47,15.92,35.6a3.2,3.2,0,0,1-1.52-2.91c.12-2.13,0-4.28,0-6.42h0a1,1,0,0,1,1.49-.72l53,33a.82.82,0,0,1,0,1.39L60.78,65Q48.51,72.65,36.24,80.32a1.64,1.64,0,0,1-2,0Q17.85,70.1,1.46,59.91c-.86-.54-1-1.14-1-2.31V50.8a.85.85,0,0,1,1.28-.75l.43.25Q18.11,60.22,34,70.17c1.3.82,1.87.12,3.86-1.14,4.81-3.06,8.42-5.32,14.07-8.65Z"/></g></g></svg>